<svg xmlns="http://www.w3.org/2000/svg" xmlns:xlink="http://www.w3.org/1999/xlink" preserveAspectRatio="xMidYMid" width="5767" height="5765" viewBox="0 0 5767 5765">
  <defs>
    <style>

      .cls-2 {
        fill: #737373;
        stroke: #000000;
      }
    </style>
  </defs>
  <path d="M2875.188,0.094 C3089.423,-2.505 3276.134,38.336 3432.188,99.094 C3473.183,116.092 3514.192,133.095 3555.188,150.094 C3572.519,158.760 3589.856,167.428 3607.188,176.094 C3630.518,177.760 3653.857,179.427 3677.188,181.094 C3730.880,190.051 3784.237,192.843 3835.188,204.094 C3995.572,239.510 4146.283,284.403 4271.187,357.094 C4347.227,401.346 4420.909,444.645 4489.187,496.094 C4531.891,528.271 4569.075,566.922 4610.188,600.094 C4636.552,621.367 4664.951,647.783 4686.188,674.094 C4724.530,721.598 4768.274,765.017 4804.188,815.094 C4824.519,844.424 4844.856,873.763 4865.188,903.094 C4893.518,922.425 4921.857,941.762 4950.187,961.094 C4989.184,993.091 5028.191,1025.097 5067.187,1057.094 C5102.150,1085.230 5137.987,1121.114 5166.188,1156.094 C5193.247,1189.658 5225.898,1219.393 5252.188,1254.094 C5332.955,1360.704 5405.811,1476.017 5462.188,1607.094 C5508.927,1715.765 5539.141,1832.768 5567.188,1962.094 C5573.187,2007.423 5579.188,2052.765 5585.188,2098.094 C5586.521,2118.425 5587.854,2138.762 5589.188,2159.094 C5600.853,2182.758 5612.522,2206.429 5624.188,2230.094 C5641.852,2274.756 5659.523,2319.432 5677.188,2364.094 C5712.983,2456.351 5729.598,2558.550 5750.188,2666.094 C5753.187,2696.757 5756.188,2727.430 5759.188,2758.094 C5764.582,2792.191 5769.797,2854.519 5764.188,2890.094 C5763.188,2920.091 5762.187,2950.097 5761.188,2980.094 C5753.415,3028.930 5756.254,3074.582 5747.188,3120.094 C5724.027,3236.354 5701.530,3343.980 5662.188,3443.094 C5647.189,3479.090 5632.186,3515.097 5617.188,3551.094 C5607.855,3569.759 5598.520,3588.429 5589.188,3607.094 C5587.854,3627.092 5586.521,3647.096 5585.188,3667.094 C5578.522,3716.089 5571.854,3765.099 5565.188,3814.094 C5536.655,3944.939 5503.892,4062.403 5456.188,4172.094 C5402.761,4294.942 5333.260,4404.536 5257.188,4505.094 C5226.288,4545.939 5187.984,4580.688 5156.188,4620.094 C5121.511,4663.069 5075.481,4704.801 5032.188,4739.094 C4996.858,4766.758 4961.517,4794.430 4926.188,4822.094 C4906.190,4835.426 4886.186,4848.762 4866.188,4862.094 C4852.189,4882.425 4838.186,4902.762 4824.188,4923.094 C4795.857,4959.423 4767.518,4995.764 4739.188,5032.094 C4652.888,5141.135 4540.825,5234.381 4426.187,5315.094 C4274.310,5422.026 4095.705,5497.737 3889.187,5550.094 C3828.854,5565.390 3765.286,5570.807 3700.188,5582.094 C3669.524,5584.427 3638.851,5586.761 3608.187,5589.094 C3575.191,5604.759 3542.184,5620.429 3509.188,5636.094 C3443.011,5664.572 3372.749,5687.404 3300.187,5709.094 C3220.593,5732.886 3135.881,5741.753 3046.187,5757.094 C3005.858,5759.760 2965.517,5762.427 2925.188,5765.094 C2896.857,5764.760 2868.518,5764.427 2840.188,5764.094 C2802.003,5758.058 2763.943,5762.878 2729.187,5757.094 C2691.858,5752.428 2654.517,5747.760 2617.187,5743.094 C2503.347,5719.318 2397.492,5693.903 2300.188,5654.094 C2266.857,5639.762 2233.518,5625.426 2200.187,5611.094 C2185.522,5603.761 2170.853,5596.426 2156.187,5589.094 C2142.855,5588.427 2129.519,5587.760 2116.187,5587.094 C2080.524,5583.094 2044.851,5579.093 2009.187,5575.094 C1900.256,5553.518 1796.865,5536.421 1703.187,5500.094 C1569.243,5448.152 1446.093,5390.643 1337.188,5314.094 C1284.770,5277.249 1237.351,5235.515 1188.187,5196.094 C1150.398,5165.793 1109.558,5129.719 1079.187,5092.094 C1044.969,5049.702 1006.219,5010.887 973.187,4967.094 C948.485,4934.342 928.504,4896.954 902.187,4865.094 C888.522,4856.095 874.853,4847.093 861.187,4838.094 C834.190,4818.096 807.185,4798.092 780.187,4778.094 C701.256,4718.388 616.754,4640.127 555.187,4563.094 C454.075,4436.580 364.417,4303.807 296.187,4143.094 C267.782,4076.185 247.064,4004.683 225.187,3931.094 C205.376,3864.450 198.107,3792.338 185.187,3719.094 C182.188,3682.431 179.187,3645.757 176.187,3609.094 C163.522,3582.763 150.853,3556.424 138.187,3530.094 C114.194,3475.022 91.899,3417.375 73.187,3358.094 C7.631,3150.396 -27.968,2839.999 27.187,2590.094 C49.322,2489.804 73.414,2395.593 108.187,2308.094 C122.186,2275.097 136.189,2242.090 150.187,2209.094 C158.853,2191.762 167.522,2174.425 176.187,2157.094 C177.187,2139.429 178.188,2121.759 179.187,2104.094 C183.854,2066.098 188.521,2028.090 193.187,1990.094 C217.380,1868.915 242.266,1757.942 283.187,1655.094 C337.121,1519.543 406.384,1400.394 485.187,1290.094 C514.915,1248.484 551.505,1212.418 583.187,1173.094 C614.309,1134.466 652.621,1094.189 691.187,1063.094 C728.850,1031.764 766.525,1000.424 804.187,969.094 C835.518,947.429 866.857,925.758 898.188,904.094 C918.852,874.763 939.523,845.424 960.187,816.094 C999.982,761.839 1047.422,714.875 1089.188,663.094 C1119.475,625.543 1161.391,590.257 1199.187,560.094 C1237.648,529.400 1274.457,495.856 1315.188,467.094 C1429.376,386.458 1555.150,322.838 1696.187,268.094 C1789.033,232.055 1891.325,213.440 1999.187,192.094 C2036.184,187.761 2073.191,183.427 2110.187,179.094 C2126.186,178.094 2142.189,177.094 2158.188,176.094 C2171.853,169.094 2185.522,162.093 2199.188,155.094 C2227.518,142.762 2255.857,130.426 2284.188,118.094 C2368.080,83.567 2457.916,58.683 2553.188,35.094 C2621.695,18.132 2694.648,16.175 2770.187,4.094 C2805.184,2.761 2840.191,1.427 2875.188,0.094 ZM2875.188,200.094 C2852.856,200.760 2830.519,201.427 2808.187,202.094 C2763.525,206.760 2718.850,211.428 2674.188,216.094 C2674.521,216.760 2674.854,217.427 2675.187,218.094 C2720.559,221.528 2782.742,241.287 2825.187,254.094 C2837.790,257.896 2872.484,273.854 2886.188,271.094 C2925.184,259.762 2964.191,248.426 3003.188,237.094 C3032.518,230.094 3061.857,223.093 3091.188,216.094 C3067.857,213.094 3044.518,210.093 3021.187,207.094 C2975.681,199.494 2924.317,200.432 2875.188,200.094 ZM2225.187,373.094 C2136.900,406.704 2069.339,457.573 1999.187,509.094 C1978.794,524.071 1935.967,548.885 1923.188,569.094 C1923.521,569.094 1923.854,569.094 1924.187,569.094 C1947.852,567.427 1971.523,565.760 1995.187,564.094 C2048.569,555.862 2108.866,559.090 2167.187,559.094 C2198.518,559.427 2229.857,559.760 2261.187,560.094 C2281.519,547.428 2301.856,534.759 2322.188,522.094 C2362.850,499.429 2403.525,476.758 2444.188,454.094 C2481.517,435.429 2518.858,416.759 2556.188,398.094 C2517.525,392.761 2478.850,387.427 2440.187,382.094 C2373.305,370.592 2299.716,373.286 2225.187,373.094 ZM3465.188,373.094 C3442.190,374.094 3419.185,375.094 3396.188,376.094 C3348.091,383.580 3298.077,383.335 3253.187,392.094 C3238.189,394.427 3223.186,396.761 3208.188,399.094 C3208.854,399.094 3209.521,399.094 3210.187,399.094 C3262.516,425.758 3314.859,452.430 3367.188,479.094 C3400.184,498.092 3433.191,517.096 3466.187,536.094 C3478.520,544.093 3490.855,552.095 3503.188,560.094 C3537.517,559.760 3571.858,559.427 3606.188,559.094 C3683.257,559.088 3773.882,556.250 3842.187,569.094 C3825.522,555.762 3808.853,542.426 3792.188,529.094 C3745.373,493.741 3698.167,460.002 3647.188,428.094 C3616.857,410.096 3586.518,392.092 3556.187,374.094 C3525.857,373.760 3495.518,373.427 3465.188,373.094 ZM1730.188,469.094 C1701.857,481.093 1673.518,493.095 1645.188,505.094 C1567.119,539.507 1495.326,586.091 1429.187,633.094 C1408.935,647.487 1384.648,660.838 1368.187,679.094 C1415.516,665.095 1462.859,651.092 1510.187,637.094 C1532.852,631.761 1555.523,626.427 1578.187,621.094 C1603.852,594.096 1629.523,567.091 1655.187,540.094 C1680.185,516.429 1705.190,492.758 1730.188,469.094 ZM4034.188,469.094 C4068.851,502.090 4103.524,535.097 4138.188,568.094 C4154.852,586.092 4171.522,604.096 4188.188,622.094 C4206.519,626.093 4224.856,630.094 4243.188,634.094 C4294.286,649.024 4348.140,660.255 4396.187,679.094 C4375.415,653.106 4329.901,628.209 4301.187,609.094 C4219.391,554.640 4131.815,508.866 4034.188,469.094 ZM2881.188,482.094 C2840.192,497.426 2799.183,512.762 2758.188,528.094 C2711.192,549.092 2664.183,570.096 2617.187,591.094 C2617.187,591.760 2617.187,592.427 2617.187,593.094 C2644.185,597.427 2671.190,601.761 2698.188,606.094 C2725.518,610.760 2752.857,615.428 2780.188,620.094 C2813.184,627.426 2846.191,634.761 2879.187,642.094 C2926.516,632.428 2973.859,622.759 3021.187,613.094 C3063.517,605.761 3105.858,598.426 3148.188,591.094 C3124.523,580.095 3100.852,569.093 3077.188,558.094 C3034.269,539.364 2991.794,523.620 2947.188,506.094 C2925.190,498.095 2903.185,490.093 2881.188,482.094 ZM2313.188,763.094 C2278.524,786.758 2243.851,810.429 2209.187,834.094 C2209.187,834.427 2209.187,834.760 2209.187,835.094 C2249.850,828.761 2290.525,822.426 2331.187,816.094 C2368.184,801.762 2405.191,787.426 2442.188,773.094 C2442.188,772.760 2442.188,772.427 2442.188,772.094 C2399.192,769.094 2356.183,766.093 2313.188,763.094 ZM3438.188,763.094 C3399.858,766.427 3361.517,769.761 3323.188,773.094 C3323.854,773.094 3324.521,773.094 3325.188,773.094 C3341.186,779.093 3357.189,785.094 3373.187,791.094 C3423.902,811.240 3488.434,830.326 3555.188,835.094 C3554.854,834.427 3554.521,833.760 3554.188,833.094 C3522.996,819.427 3474.296,763.236 3438.188,763.094 ZM1958.187,766.094 C1939.189,767.760 1920.186,769.427 1901.187,771.094 C1846.571,780.154 1789.836,783.415 1738.188,794.094 C1719.856,797.093 1701.519,800.094 1683.188,803.094 C1667.856,821.425 1652.519,839.762 1637.188,858.094 C1605.295,899.069 1572.677,939.064 1542.187,982.094 C1530.522,998.759 1518.853,1015.429 1507.187,1032.094 C1507.521,1032.094 1507.854,1032.094 1508.187,1032.094 C1565.848,1010.763 1623.527,989.425 1681.188,968.094 C1708.185,959.761 1735.190,951.426 1762.187,943.094 C1792.518,915.430 1822.857,887.758 1853.187,860.094 C1891.184,828.764 1929.191,797.424 1967.188,766.094 C1964.188,766.094 1961.187,766.094 1958.187,766.094 ZM3797.188,766.094 C3839.183,800.757 3881.192,835.431 3923.188,870.094 C3949.185,894.091 3975.190,918.096 4001.187,942.094 C4027.518,950.426 4053.857,958.761 4080.187,967.094 C4140.211,988.124 4202.531,1007.248 4259.188,1033.094 C4221.360,972.122 4174.498,917.679 4131.188,862.094 C4114.856,842.429 4098.519,822.758 4082.188,803.094 C4055.524,798.761 4028.852,794.427 4002.188,790.094 C3939.237,777.253 3867.113,767.058 3797.188,766.094 ZM1357.187,894.094 C1328.857,905.426 1300.518,916.762 1272.187,928.094 C1213.802,953.446 1156.136,981.961 1103.187,1013.094 C1084.856,1023.426 1066.519,1033.761 1048.188,1044.094 C1031.219,1056.528 1012.946,1103.958 1001.187,1124.094 C960.218,1194.253 919.885,1275.560 894.187,1358.094 C894.521,1358.094 894.854,1358.094 895.188,1358.094 C959.152,1318.406 1021.618,1274.481 1087.187,1235.094 C1119.184,1217.429 1151.191,1199.759 1183.187,1182.094 C1191.520,1166.095 1199.855,1150.092 1208.187,1134.094 C1230.519,1096.098 1252.856,1058.090 1275.187,1020.094 C1302.518,978.098 1329.857,936.090 1357.187,894.094 ZM4407.187,895.094 C4447.759,961.614 4493.478,1026.112 4534.188,1094.094 C4550.853,1124.091 4567.522,1154.097 4584.188,1184.094 C4618.184,1202.759 4652.191,1221.429 4686.188,1240.094 C4749.512,1277.982 4809.777,1320.162 4871.187,1359.094 C4840.109,1275.951 4805.423,1195.495 4763.188,1123.094 C4748.856,1097.763 4734.519,1072.425 4720.188,1047.094 C4694.190,1032.095 4668.185,1017.092 4642.187,1002.094 C4589.264,971.176 4532.380,946.101 4473.188,921.094 C4451.190,912.428 4429.185,903.760 4407.187,895.094 ZM2802.188,978.094 C2764.858,979.427 2727.517,980.761 2690.188,982.094 C2609.938,994.900 2526.288,989.602 2450.188,1003.094 C2425.857,1006.093 2401.518,1009.094 2377.187,1012.094 C2321.970,1032.385 2268.814,1060.824 2216.187,1084.094 C2047.861,1158.521 1895.817,1252.337 1747.187,1346.094 C1687.803,1383.554 1631.863,1424.223 1576.187,1465.094 C1554.190,1481.425 1532.185,1497.762 1510.187,1514.094 C1391.228,1660.040 1296.132,1824.974 1198.188,1992.094 C1150.348,2073.722 1107.505,2160.595 1068.187,2250.094 C1048.856,2294.089 1029.519,2338.098 1010.187,2382.094 C1008.521,2397.759 1006.854,2413.429 1005.187,2429.094 C994.436,2488.904 997.320,2552.401 987.187,2616.094 C984.188,2670.088 981.187,2724.099 978.187,2778.094 C978.187,2794.759 978.187,2811.429 978.187,2828.094 C978.187,2864.757 978.187,2901.431 978.187,2938.094 C978.187,2954.425 978.187,2970.762 978.187,2987.094 C980.854,3036.422 983.521,3085.765 986.187,3135.094 C996.804,3201.117 993.053,3267.026 1004.188,3329.094 C1006.521,3348.425 1008.854,3367.762 1011.187,3387.094 C1027.852,3424.757 1044.523,3462.431 1061.187,3500.094 C1087.422,3559.622 1113.331,3619.483 1145.187,3674.094 C1176.849,3728.371 1201.366,3784.825 1233.188,3838.094 C1318.776,3981.367 1407.390,4122.492 1509.188,4250.094 C1530.852,4266.425 1552.523,4282.762 1574.188,4299.094 C1625.563,4336.640 1677.422,4373.312 1731.187,4409.094 C1868.894,4500.738 2015.273,4591.433 2173.187,4661.094 C2239.991,4690.563 2307.034,4730.306 2378.187,4754.094 C2397.519,4756.427 2416.856,4758.761 2436.188,4761.094 C2498.270,4772.077 2564.121,4768.629 2630.188,4779.094 C2679.516,4781.760 2728.859,4784.427 2778.187,4787.094 C2793.853,4787.094 2809.522,4787.094 2825.187,4787.094 C2863.184,4787.094 2901.191,4787.094 2939.187,4787.094 C2955.186,4787.094 2971.189,4787.094 2987.188,4787.094 C3041.182,4784.094 3095.193,4781.093 3149.187,4778.094 C3210.054,4768.267 3270.954,4771.251 3328.188,4761.094 C3346.519,4759.094 3364.856,4757.094 3383.188,4755.094 C3400.852,4747.428 3418.523,4739.760 3436.187,4732.094 C3483.687,4711.626 3529.346,4689.368 3575.187,4669.094 C3739.621,4596.368 3892.017,4503.571 4035.188,4408.094 C4091.736,4370.383 4146.222,4331.724 4200.187,4292.094 C4218.186,4278.762 4236.189,4265.426 4254.187,4252.094 C4278.518,4218.764 4302.857,4185.424 4327.188,4152.094 C4410.315,4035.491 4484.737,3914.127 4559.188,3787.094 C4610.590,3699.388 4656.896,3606.366 4699.187,3510.094 C4717.852,3467.431 4736.523,3424.756 4755.188,3382.094 C4757.521,3360.763 4759.854,3339.425 4762.187,3318.094 C4775.432,3242.545 4770.395,3159.717 4783.188,3080.094 C4784.187,3045.764 4785.188,3011.424 4786.187,2977.094 C4790.990,2946.438 4792.110,2876.892 4787.188,2846.094 C4787.188,2826.762 4787.188,2807.425 4787.188,2788.094 C4784.854,2742.098 4782.521,2696.089 4780.188,2650.094 C4779.188,2630.762 4778.187,2611.425 4777.188,2592.094 C4771.855,2541.099 4766.520,2490.089 4761.188,2439.094 C4758.854,2419.429 4756.521,2399.758 4754.188,2380.094 C4733.945,2320.029 4701.219,2262.692 4676.188,2206.094 C4603.699,2042.190 4511.584,1893.981 4420.188,1749.094 C4384.488,1692.501 4345.420,1639.630 4307.188,1586.094 C4288.189,1560.763 4269.186,1535.425 4250.188,1510.094 C4105.385,1394.600 3945.622,1299.464 3781.188,1203.094 C3700.681,1155.911 3615.386,1112.937 3527.188,1074.094 C3479.859,1053.096 3432.516,1032.092 3385.188,1011.094 C3329.193,1005.094 3273.182,999.093 3217.188,993.094 C3181.524,990.427 3145.851,987.760 3110.188,985.094 C3083.190,983.761 3056.185,982.427 3029.187,981.094 C2961.526,970.436 2875.115,978.094 2802.188,978.094 ZM1444.187,1276.094 C1406.525,1294.092 1368.850,1312.096 1331.187,1330.094 C1312.523,1368.757 1293.852,1407.431 1275.187,1446.094 C1329.915,1410.427 1375.419,1363.213 1415.187,1312.094 C1425.187,1300.095 1435.188,1288.093 1445.187,1276.094 C1444.854,1276.094 1444.521,1276.094 1444.187,1276.094 ZM4319.188,1276.094 C4366.567,1341.826 4423.518,1398.648 4489.187,1446.094 C4471.189,1407.764 4453.186,1369.423 4435.188,1331.094 C4396.525,1312.762 4357.850,1294.425 4319.188,1276.094 ZM677.188,1369.094 C655.190,1398.757 633.185,1428.430 611.187,1458.094 C559.638,1531.347 498.141,1638.792 469.187,1731.094 C469.854,1730.760 470.521,1730.427 471.187,1730.094 C482.853,1717.428 494.522,1704.759 506.187,1692.094 C532.495,1659.545 564.640,1631.518 594.187,1602.094 C603.187,1594.095 612.188,1586.093 621.187,1578.094 C631.520,1536.431 641.855,1494.756 652.187,1453.094 C660.520,1425.097 668.855,1397.091 677.188,1369.094 ZM5086.188,1369.094 C5103.077,1415.133 5115.456,1465.438 5129.188,1514.094 C5133.854,1535.092 5138.521,1556.096 5143.188,1577.094 C5158.853,1591.759 5174.522,1606.429 5190.187,1621.094 C5225.517,1657.757 5260.858,1694.431 5296.188,1731.094 C5254.980,1633.155 5211.400,1542.269 5154.188,1461.094 C5134.775,1433.551 5111.919,1388.992 5086.188,1369.094 ZM1030.187,1507.094 C1007.523,1523.092 984.852,1539.095 962.187,1555.094 C924.119,1582.271 888.669,1613.448 852.187,1642.094 C835.856,1655.426 819.519,1668.762 803.187,1682.094 C798.521,1710.091 793.854,1738.097 789.187,1766.094 C776.679,1829.980 774.177,1899.003 765.187,1968.094 C794.518,1932.431 823.857,1896.757 853.187,1861.094 C882.851,1828.430 912.524,1795.757 942.187,1763.094 C956.853,1718.098 971.522,1673.089 986.187,1628.094 C997.853,1597.430 1009.522,1566.757 1021.187,1536.094 C1023.941,1529.530 1032.738,1510.370 1030.187,1507.094 ZM4733.188,1507.094 C4752.852,1560.088 4772.523,1613.099 4792.187,1666.094 C4802.520,1698.757 4812.855,1731.430 4823.188,1764.094 C4833.853,1775.093 4844.522,1786.095 4855.188,1797.094 C4890.854,1841.309 4930.364,1881.792 4965.188,1927.094 C4976.186,1940.759 4987.189,1954.428 4998.188,1968.094 C4998.521,1968.094 4998.854,1968.094 4999.187,1968.094 C4999.473,1900.468 4987.785,1822.759 4975.188,1762.094 C4970.855,1735.763 4966.520,1709.424 4962.188,1683.094 C4941.190,1665.762 4920.185,1648.425 4899.188,1631.094 C4845.172,1589.050 4792.088,1544.284 4733.188,1507.094 ZM567.187,1923.094 C550.523,1944.092 533.852,1965.096 517.187,1986.094 C479.030,2037.806 443.959,2090.713 410.187,2147.094 C398.189,2167.425 386.186,2187.762 374.188,2208.094 C374.188,2244.423 374.188,2280.764 374.188,2317.094 C375.187,2341.425 376.188,2365.763 377.187,2390.094 C386.448,2446.356 387.294,2503.488 398.187,2556.094 C398.521,2556.094 398.854,2556.094 399.187,2556.094 C399.187,2555.427 399.187,2554.760 399.187,2554.094 C425.851,2501.766 452.523,2449.422 479.187,2397.094 C498.186,2364.097 517.189,2331.090 536.187,2298.094 C544.187,2285.762 552.188,2273.426 560.187,2261.094 C559.521,2242.096 558.854,2223.092 558.187,2204.094 C558.521,2162.098 558.854,2120.090 559.187,2078.094 C561.854,2026.432 564.521,1974.755 567.187,1923.094 ZM5196.188,1923.094 C5197.854,1946.758 5199.521,1970.429 5201.187,1994.094 C5209.752,2047.324 5206.195,2107.822 5206.188,2166.094 C5205.854,2198.091 5205.521,2230.097 5205.188,2262.094 C5219.519,2285.091 5233.856,2308.096 5248.188,2331.094 C5278.238,2381.246 5304.206,2433.079 5331.188,2486.094 C5342.853,2509.758 5354.522,2533.429 5366.188,2557.094 C5366.521,2557.094 5366.854,2557.094 5367.188,2557.094 C5373.187,2511.765 5379.188,2466.423 5385.188,2421.094 C5387.187,2381.764 5389.188,2342.423 5391.188,2303.094 C5391.188,2271.764 5391.188,2240.424 5391.188,2209.094 C5380.189,2190.429 5369.186,2171.759 5358.188,2153.094 C5325.704,2099.906 5292.401,2050.352 5257.188,2001.094 C5239.174,1975.895 5220.231,1942.249 5196.188,1923.094 ZM834.187,2209.094 C810.190,2244.424 786.185,2279.764 762.187,2315.094 C764.187,2340.425 766.188,2365.763 768.187,2391.094 C769.854,2408.092 771.521,2425.095 773.187,2442.094 C787.519,2404.431 801.856,2366.757 816.188,2329.094 C819.187,2307.763 822.188,2286.425 825.187,2265.094 C828.187,2246.429 831.188,2227.759 834.187,2209.094 ZM4930.188,2210.094 C4936.520,2250.423 4942.855,2290.764 4949.188,2331.094 C4957.520,2351.425 4965.855,2371.762 4974.188,2392.094 C4980.520,2408.759 4986.855,2425.429 4993.188,2442.094 C4996.187,2399.431 4999.188,2356.756 5002.188,2314.094 C4978.190,2279.431 4954.185,2244.757 4930.188,2210.094 ZM591.187,2616.094 C581.522,2636.758 571.853,2657.429 562.187,2678.094 C540.168,2728.032 521.562,2777.758 501.187,2830.094 C494.855,2846.759 488.520,2863.429 482.187,2880.094 C479.578,2893.930 503.006,2941.065 508.187,2954.094 C524.186,2994.090 540.189,3034.098 556.187,3074.094 C567.853,3099.091 579.522,3124.096 591.187,3149.094 C591.521,3149.094 591.854,3149.094 592.187,3149.094 C597.520,3116.764 602.855,3084.424 608.187,3052.094 C615.520,3012.431 622.855,2972.756 630.187,2933.094 C634.187,2916.762 638.188,2900.425 642.187,2884.094 C630.855,2829.099 619.520,2774.088 608.187,2719.094 C602.521,2684.764 596.854,2650.424 591.187,2616.094 ZM5173.188,2617.094 C5162.189,2680.087 5151.186,2743.100 5140.188,2806.094 C5134.521,2832.758 5128.854,2859.430 5123.188,2886.094 C5133.186,2933.089 5143.188,2980.098 5153.188,3027.094 C5159.854,3067.423 5166.522,3107.764 5173.188,3148.094 C5173.521,3147.427 5173.854,3146.760 5174.188,3146.094 C5182.853,3127.429 5191.522,3108.759 5200.188,3090.094 C5219.710,3045.580 5238.714,3000.336 5257.188,2953.094 C5265.853,2929.429 5274.522,2905.758 5283.188,2882.094 C5273.522,2856.430 5263.853,2830.758 5254.188,2805.094 C5235.593,2758.203 5216.653,2713.365 5197.188,2669.094 C5189.188,2651.762 5181.187,2634.425 5173.188,2617.094 ZM216.187,2673.094 C212.521,2701.758 208.854,2730.430 205.188,2759.094 C203.521,2786.758 201.854,2814.430 200.187,2842.094 C200.521,2869.424 200.854,2896.763 201.187,2924.094 C202.187,2947.758 203.188,2971.429 204.187,2995.094 C208.187,3027.424 212.188,3059.764 216.187,3092.094 C216.521,3092.094 216.854,3092.094 217.187,3092.094 C222.187,3070.096 227.188,3048.092 232.187,3026.094 C240.520,2993.430 248.855,2960.757 257.187,2928.094 C261.854,2913.762 266.521,2899.426 271.187,2885.094 C265.521,2865.762 259.854,2846.425 254.188,2827.094 C241.522,2775.766 228.853,2724.422 216.187,2673.094 ZM5548.188,2674.094 C5536.189,2723.422 5524.186,2772.765 5512.188,2822.094 C5508.202,2835.307 5491.282,2873.089 5494.188,2887.094 C5505.186,2924.757 5516.189,2962.431 5527.188,3000.094 C5534.520,3030.424 5541.855,3060.763 5549.188,3091.094 C5552.521,3064.430 5555.855,3037.758 5559.188,3011.094 C5569.189,2948.932 5569.851,2841.358 5560.188,2779.094 C5554.813,2744.463 5560.843,2703.609 5548.188,2674.094 ZM398.187,3209.094 C387.838,3261.490 386.441,3318.209 377.187,3374.094 C376.188,3398.091 375.187,3422.096 374.188,3446.094 C373.854,3482.423 373.521,3518.764 373.187,3555.094 C380.658,3580.336 411.824,3622.200 426.188,3645.094 C459.710,3698.524 495.092,3748.010 532.187,3797.094 C544.186,3812.092 556.189,3827.095 568.187,3842.094 C566.609,3773.088 558.187,3701.832 558.187,3628.094 C558.854,3587.098 559.521,3546.090 560.187,3505.094 C537.190,3466.764 514.185,3428.423 491.187,3390.094 C468.856,3347.765 446.519,3305.423 424.187,3263.094 C415.522,3245.096 406.853,3227.092 398.187,3209.094 ZM5366.188,3209.094 C5335.587,3277.304 5301.541,3344.159 5264.188,3407.094 C5244.523,3439.424 5224.852,3471.764 5205.188,3504.094 C5205.521,3540.757 5205.854,3577.431 5206.188,3614.094 C5206.193,3693.397 5205.636,3770.839 5196.188,3843.094 C5196.854,3842.760 5197.521,3842.427 5198.187,3842.094 C5212.519,3824.096 5226.856,3806.092 5241.188,3788.094 C5282.075,3732.690 5319.470,3676.267 5356.188,3616.094 C5367.853,3596.096 5379.522,3576.092 5391.188,3556.094 C5391.521,3538.762 5391.854,3521.425 5392.188,3504.094 C5392.190,3446.021 5392.150,3386.945 5383.188,3335.094 C5376.777,3298.004 5379.563,3238.960 5366.188,3209.094 ZM772.187,3324.094 C768.854,3366.423 765.520,3408.765 762.187,3451.094 C786.518,3486.090 810.857,3521.097 835.188,3556.094 C828.855,3516.098 822.520,3476.090 816.188,3436.094 C807.522,3414.763 798.853,3393.425 790.187,3372.094 C784.188,3356.095 778.187,3340.092 772.187,3324.094 ZM4992.188,3324.094 C4977.856,3361.090 4963.519,3398.097 4949.188,3435.094 C4942.855,3475.423 4936.520,3515.764 4930.188,3556.094 C4930.521,3556.094 4930.854,3556.094 4931.187,3556.094 C4931.187,3555.427 4931.187,3554.760 4931.187,3554.094 C4954.852,3520.097 4978.523,3486.090 5002.188,3452.094 C4998.854,3409.431 4995.521,3366.756 4992.188,3324.094 ZM765.187,3797.094 C768.992,3868.657 777.280,3941.003 790.187,4006.094 C794.520,4031.758 798.855,4057.430 803.187,4083.094 C824.185,4100.425 845.190,4117.762 866.187,4135.094 C920.201,4177.114 973.310,4221.904 1032.187,4259.094 C1011.190,4202.099 990.185,4145.088 969.187,4088.094 C959.855,4059.097 950.520,4030.091 941.187,4001.094 C913.190,3970.430 885.185,3939.757 857.188,3909.094 C826.524,3871.764 795.851,3834.423 765.187,3797.094 ZM4998.188,3798.094 C4962.536,3854.559 4910.688,3901.436 4869.188,3953.094 C4853.856,3969.425 4838.519,3985.762 4823.188,4002.094 C4814.522,4029.758 4805.853,4057.430 4797.187,4085.094 C4775.856,4142.755 4754.519,4200.433 4733.188,4258.094 C4749.853,4246.428 4766.522,4234.759 4783.188,4223.094 C4826.189,4192.571 4866.240,4160.002 4907.188,4128.094 C4925.519,4112.762 4943.856,4097.426 4962.188,4082.094 C4964.187,4069.428 4966.188,4056.759 4968.188,4044.094 C4975.708,4008.923 4978.331,3971.798 4985.188,3934.094 C4988.845,3913.980 5004.233,3814.257 4998.188,3798.094 ZM5295.188,4034.094 C5283.189,4047.092 5271.186,4060.095 5259.188,4073.094 C5234.523,4098.758 5209.852,4124.430 5185.188,4150.094 C5171.522,4162.426 5157.853,4174.762 5144.188,4187.094 C5139.188,4208.425 5134.187,4229.763 5129.188,4251.094 C5114.856,4299.756 5100.519,4348.432 5086.188,4397.094 C5086.854,4396.760 5087.521,4396.427 5088.188,4396.094 C5108.519,4368.763 5128.856,4341.424 5149.187,4314.094 C5188.426,4256.014 5221.367,4195.268 5254.188,4130.094 C5265.800,4107.034 5275.749,4082.922 5286.188,4058.094 C5289.187,4050.095 5292.188,4042.093 5295.188,4034.094 ZM469.187,4035.094 C477.053,4063.644 492.798,4090.343 504.187,4116.094 C533.826,4183.105 569.630,4243.325 608.187,4301.094 C627.158,4329.517 652.423,4375.618 678.187,4396.094 C665.189,4352.431 652.186,4308.756 639.187,4265.094 C633.188,4239.430 627.187,4213.758 621.187,4188.094 C599.856,4168.096 578.519,4148.092 557.187,4128.094 C527.857,4097.097 498.518,4066.091 469.187,4035.094 ZM1275.187,4319.094 C1282.578,4337.236 1321.870,4428.517 1332.187,4436.094 C1370.184,4454.092 1408.191,4472.096 1446.188,4490.094 C1397.587,4424.029 1341.191,4367.758 1275.187,4319.094 ZM4489.187,4319.094 C4458.191,4344.091 4427.184,4369.096 4396.187,4394.094 C4370.523,4426.091 4344.852,4458.097 4319.188,4490.094 C4357.850,4471.429 4396.525,4452.759 4435.188,4434.094 C4445.187,4413.096 4455.189,4392.092 4465.188,4371.094 C4473.187,4353.762 4481.188,4336.425 4489.187,4319.094 ZM894.187,4407.094 C903.520,4430.425 912.855,4453.763 922.187,4477.094 C947.480,4536.714 973.001,4593.808 1004.188,4647.094 C1014.940,4665.465 1031.946,4709.579 1047.187,4721.094 C1074.518,4736.426 1101.857,4751.762 1129.187,4767.094 C1192.825,4804.130 1282.646,4849.845 1358.187,4871.094 C1317.620,4804.540 1271.905,4740.089 1231.187,4672.094 C1214.189,4641.763 1197.186,4611.424 1180.187,4581.094 C1144.858,4561.762 1109.517,4542.425 1074.187,4523.094 C1012.583,4486.235 954.040,4444.922 894.187,4407.094 ZM4870.188,4407.094 C4851.189,4419.759 4832.186,4432.428 4813.188,4445.094 C4765.487,4475.134 4717.360,4506.860 4668.188,4536.094 C4639.857,4551.426 4611.518,4566.762 4583.188,4582.094 C4564.856,4615.424 4546.519,4648.764 4528.188,4682.094 C4501.523,4725.089 4474.852,4768.098 4448.187,4811.094 C4434.522,4831.092 4420.853,4851.096 4407.187,4871.094 C4429.519,4862.095 4451.856,4853.093 4474.188,4844.094 C4532.496,4819.058 4589.015,4794.873 4641.188,4764.094 C4659.054,4753.554 4711.058,4730.996 4721.187,4717.094 C4755.052,4670.619 4785.316,4606.895 4809.188,4552.094 C4824.540,4516.850 4841.017,4481.422 4856.188,4444.094 C4860.854,4431.762 4865.521,4419.426 4870.188,4407.094 ZM1506.188,4733.094 C1542.862,4792.267 1588.492,4844.890 1630.187,4899.094 C1647.519,4920.092 1664.856,4941.096 1682.187,4962.094 C1707.852,4966.427 1733.523,4970.761 1759.187,4975.094 C1824.746,4988.579 1896.563,4993.429 1968.187,5000.094 C1967.854,4999.427 1967.521,4998.760 1967.188,4998.094 C1951.856,4985.762 1936.519,4973.426 1921.188,4961.094 C1883.191,4929.097 1845.184,4897.091 1807.187,4865.094 C1792.856,4851.428 1778.519,4837.759 1764.187,4824.094 C1736.190,4815.095 1708.185,4806.093 1680.187,4797.094 C1622.193,4775.763 1564.182,4754.425 1506.188,4733.094 ZM4257.187,4733.094 C4237.189,4740.760 4217.185,4748.428 4197.187,4756.094 C4150.859,4772.759 4104.516,4789.429 4058.187,4806.094 C4040.189,4811.427 4022.186,4816.761 4004.188,4822.094 C3981.190,4843.092 3958.185,4864.096 3935.187,4885.094 C3889.192,4923.423 3843.183,4961.764 3797.188,5000.094 C3866.307,4992.031 3935.451,4988.802 3999.188,4976.094 C4027.185,4971.428 4055.190,4966.760 4083.188,4962.094 C4093.853,4949.095 4104.522,4936.092 4115.187,4923.094 C4140.308,4891.083 4166.787,4860.364 4191.188,4827.094 C4202.179,4812.106 4256.569,4745.583 4257.187,4733.094 ZM2209.187,4930.094 C2244.184,4954.425 2279.191,4978.763 2314.188,5003.094 C2335.519,5001.427 2356.856,4999.760 2378.187,4998.094 C2398.288,4994.737 2424.799,5000.302 2441.187,4992.094 C2403.858,4977.762 2366.517,4963.426 2329.187,4949.094 C2289.191,4942.761 2249.183,4936.426 2209.187,4930.094 ZM3554.188,4930.094 C3514.525,4936.426 3474.850,4942.761 3435.188,4949.094 C3397.858,4963.426 3360.517,4977.762 3323.188,4992.094 C3323.188,4992.427 3323.188,4992.760 3323.188,4993.094 C3365.517,4996.427 3407.858,4999.761 3450.187,5003.094 C3485.517,4978.763 3520.858,4954.425 3556.187,4930.094 C3555.521,4930.094 3554.854,4930.094 3554.188,4930.094 ZM1369.187,5087.094 C1389.620,5111.946 1424.612,5129.385 1451.187,5148.094 C1511.902,5190.836 1577.375,5229.563 1649.187,5261.094 C1675.181,5272.507 1701.645,5287.446 1730.188,5296.094 C1694.858,5262.097 1659.517,5228.090 1624.187,5194.094 C1608.522,5177.429 1592.853,5160.759 1577.188,5144.094 C1551.523,5138.094 1525.852,5132.093 1500.187,5126.094 C1456.525,5113.095 1412.850,5100.092 1369.187,5087.094 ZM4394.188,5087.094 C4380.189,5091.427 4366.186,5095.761 4352.188,5100.094 C4312.191,5111.426 4272.184,5122.762 4232.188,5134.094 C4218.189,5137.093 4204.186,5140.094 4190.188,5143.094 C4175.856,5158.092 4161.519,5173.095 4147.188,5188.094 C4109.858,5224.090 4072.517,5260.097 4035.188,5296.094 C4141.600,5250.818 4237.324,5202.427 4325.187,5140.094 C4348.633,5123.461 4377.021,5108.118 4396.187,5087.094 C4395.521,5087.094 4394.854,5087.094 4394.188,5087.094 ZM2881.188,5123.094 C2853.190,5129.093 2825.185,5135.094 2797.187,5141.094 C2739.965,5154.504 2677.762,5166.878 2616.188,5173.094 C2616.854,5173.427 2617.521,5173.760 2618.187,5174.094 C2643.174,5193.073 2680.425,5203.365 2710.187,5216.094 C2750.763,5233.448 2792.222,5249.535 2835.188,5266.094 C2850.186,5271.760 2865.189,5277.428 2880.187,5283.094 C2894.134,5285.389 2938.086,5263.228 2951.187,5258.094 C3005.443,5236.833 3057.105,5214.570 3108.188,5192.094 C3121.520,5185.761 3134.855,5179.426 3148.188,5173.094 C3056.334,5165.548 2966.133,5142.032 2881.188,5123.094 ZM1923.188,5197.094 C1939.519,5210.092 1955.856,5223.095 1972.187,5236.094 C2021.471,5273.308 2071.163,5308.926 2125.188,5342.094 C2153.518,5358.759 2181.857,5375.429 2210.188,5392.094 C2225.186,5392.094 2240.189,5392.094 2255.187,5392.094 C2305.983,5392.096 2357.093,5393.705 2402.187,5386.094 C2443.655,5379.095 2484.137,5379.553 2522.187,5372.094 C2533.482,5369.880 2547.804,5371.429 2556.188,5366.094 C2526.317,5357.363 2495.006,5338.220 2469.188,5323.094 C2424.134,5296.698 2377.382,5276.530 2333.188,5250.094 C2308.857,5235.095 2284.518,5220.092 2260.187,5205.094 C2219.525,5205.760 2178.850,5206.427 2138.187,5207.094 C2064.311,5207.093 1992.548,5198.318 1923.188,5197.094 ZM3834.187,5197.094 C3809.857,5198.760 3785.518,5200.427 3761.187,5202.094 C3705.198,5211.085 3640.811,5207.105 3580.188,5207.094 C3554.857,5206.427 3529.518,5205.760 3504.187,5205.094 C3484.523,5217.426 3464.852,5229.762 3445.188,5242.094 C3390.178,5275.697 3332.744,5304.293 3274.188,5334.094 C3252.190,5344.759 3230.185,5355.428 3208.188,5366.094 C3208.188,5366.427 3208.188,5366.760 3208.188,5367.094 C3255.516,5373.426 3302.859,5379.761 3350.188,5386.094 C3382.518,5387.760 3414.857,5389.427 3447.187,5391.094 C3482.851,5391.427 3518.524,5391.760 3554.188,5392.094 C3577.865,5386.015 3621.767,5353.521 3643.187,5340.094 C3696.298,5306.802 3745.445,5271.928 3794.188,5235.094 C3810.186,5222.428 3826.189,5209.759 3842.187,5197.094 C3839.521,5197.094 3836.854,5197.094 3834.187,5197.094 ZM2880.187,5494.094 C2862.189,5499.427 2844.186,5504.761 2826.188,5510.094 C2778.860,5524.583 2725.697,5542.431 2673.188,5548.094 C2673.188,5548.427 2673.188,5548.760 2673.188,5549.094 C2705.851,5553.093 2738.524,5557.094 2771.187,5561.094 C2794.852,5562.427 2818.523,5563.761 2842.187,5565.094 C2868.852,5564.760 2895.524,5564.427 2922.188,5564.094 C2946.185,5563.094 2970.190,5562.094 2994.187,5561.094 C3026.851,5557.094 3059.524,5553.093 3092.187,5549.094 C3060.524,5541.761 3028.851,5534.426 2997.187,5527.094 C2958.191,5516.095 2919.184,5505.093 2880.187,5494.094 Z" id="path-1" class="cls-2" fill-rule="evenodd"/>
</svg>
